<svg width="42" height="42" viewBox="0 0 42 42" fill="none" xmlns="http://www.w3.org/2000/svg">
<rect width="42" height="42" rx="21" fill="#418ECB"/>
<path d="M30 25V17C29.9996 16.6493 29.9071 16.3048 29.7315 16.0012C29.556 15.6975 29.3037 15.4454 29 15.27L22 11.27C21.696 11.0945 21.3511 11.0021 21 11.0021C20.6489 11.0021 20.304 11.0945 20 11.27L13 15.27C12.6963 15.4454 12.444 15.6975 12.2685 16.0012C12.0929 16.3048 12.0004 16.6493 12 17V25C12.0004 25.3507 12.0929 25.6952 12.2685 25.9989C12.444 26.3025 12.6963 26.5547 13 26.73L20 30.73C20.304 30.9056 20.6489 30.998 21 30.998C21.3511 30.998 21.696 30.9056 22 30.73L29 26.73C29.3037 26.5547 29.556 26.3025 29.7315 25.9989C29.9071 25.6952 29.9996 25.3507 30 25Z" stroke="white" stroke-width="2" stroke-linecap="round" stroke-linejoin="round"/>
<path d="M12.27 15.9609L21 21.0109L29.73 15.9609" stroke="white" stroke-width="2" stroke-linecap="round" stroke-linejoin="round"/>
<path d="M21 31.08V21" stroke="white" stroke-width="2" stroke-linecap="round" stroke-linejoin="round"/>
</svg>
