<svg width="32" height="32" viewBox="0 0 32 32" fill="none" xmlns="http://www.w3.org/2000/svg">
<mask id="mask0_860_764" style="mask-type:luminance" maskUnits="userSpaceOnUse" x="0" y="2" width="32" height="28">
<path d="M22.6667 27.3334L29.3334 16L22.6667 4.66669H9.33335L2.66669 16L9.33335 27.3334H22.6667Z" fill="#555555" stroke="white" stroke-width="4" stroke-linejoin="round"/>
<path d="M16 19.3334C16.8841 19.3334 17.7319 18.9822 18.357 18.357C18.9822 17.7319 19.3334 16.8841 19.3334 16C19.3334 15.116 18.9822 14.2681 18.357 13.643C17.7319 13.0179 16.8841 12.6667 16 12.6667C15.116 12.6667 14.2681 13.0179 13.643 13.643C13.0179 14.2681 12.6667 15.116 12.6667 16C12.6667 16.8841 13.0179 17.7319 13.643 18.357C14.2681 18.9822 15.116 19.3334 16 19.3334Z" fill="#555555" stroke="white" stroke-width="4" stroke-linejoin="round"/>
</mask>
<g mask="url(#mask0_860_764)">
<path d="M0 0H32V32H0V0Z" fill="#418ECB"/>
</g>
</svg>
